<?xml version="1.0" standalone="no"?>
<!DOCTYPE svg PUBLIC "-//W3C//DTD SVG 20010904//EN"
 "http://www.w3.org/TR/2001/REC-SVG-20010904/DTD/svg10.dtd">
<svg version="1.0" xmlns="http://www.w3.org/2000/svg"
 width="225.000000pt" height="225.000000pt" viewBox="0 0 225.000000 225.000000"
 preserveAspectRatio="xMidYMid meet">

<g transform="translate(0.000000,225.000000) scale(0.100000,-0.100000)"
fill="#000000" stroke="none">
<path d="M1029 1790 c-153 -24 -263 -82 -379 -199 -135 -136 -193 -277 -193
-466 0 -117 18 -196 71 -305 51 -106 186 -241 292 -292 109 -53 188 -72 305
-71 194 0 331 58 470 198 141 140 198 277 198 470 0 193 -57 330 -198 470 -98
99 -183 149 -300 179 -79 20 -196 27 -266 16z m435 -390 c56 -29 68 -58 78
-185 11 -142 -3 -287 -30 -325 -39 -52 -56 -55 -348 -58 -455 -6 -459 -3 -457
299 1 166 9 213 46 247 38 36 90 41 392 39 235 -2 295 -5 319 -17z"/>
<path d="M1040 1126 l0 -125 104 62 c89 52 102 63 88 73 -9 6 -56 34 -104 62
l-88 52 0 -124z"/>
</g>
</svg>
